<?xml version="1.0" standalone="no"?><svg xmlns="http://www.w3.org/2000/svg" viewBox="0 0 1440 320"><path fill="#EDE9FE" fill-opacity="1" d="M0,288L17.1,256C34.3,224,69,160,103,128C137.1,96,171,96,206,133.3C240,171,274,245,309,229.3C342.9,213,377,107,411,74.7C445.7,43,480,85,514,128C548.6,171,583,213,617,202.7C651.4,192,686,128,720,128C754.3,128,789,192,823,213.3C857.1,235,891,213,926,186.7C960,160,994,128,1029,101.3C1062.9,75,1097,53,1131,80C1165.7,107,1200,181,1234,197.3C1268.6,213,1303,171,1337,133.3C1371.4,96,1406,64,1423,48L1440,32L1440,320L1422.9,320C1405.7,320,1371,320,1337,320C1302.9,320,1269,320,1234,320C1200,320,1166,320,1131,320C1097.1,320,1063,320,1029,320C994.3,320,960,320,926,320C891.4,320,857,320,823,320C788.6,320,754,320,720,320C685.7,320,651,320,617,320C582.9,320,549,320,514,320C480,320,446,320,411,320C377.1,320,343,320,309,320C274.3,320,240,320,206,320C171.4,320,137,320,103,320C68.6,320,34,320,17,320L0,320Z"></path></svg>